Coordinates
version=1
nRows=9
nColumns=63
inDegrees=yes

Units are S.I. units (second, meters, Newtons, ...)
If the header above contains a line with 'inDegrees', this indicates whether rotational values are in degrees (yes) or radians (no).

endheader
time	pelvis_tilt	pelvis_list	pelvis_rotation	pelvis_tx	pelvis_ty	pelvis_tz	hip_flexion_r	hip_adduction_r	hip_rotation_r	knee_angle_r	knee_angle_r_beta	ankle_angle_r	subtalar_angle_r	mtp_angle_r	hip_flexion_l	hip_adduction_l	hip_rotation_l	knee_angle_l	knee_angle_l_beta	ankle_angle_l	subtalar_angle_l	mtp_angle_l	L5_S1_Flex_Ext	L5_S1_Lat_Bending	L5_S1_axial_rotation	L4_L5_Flex_Ext	L4_L5_Lat_Bending	L4_L5_axial_rotation	L3_L4_Flex_Ext	L3_L4_Lat_Bending	L3_L4_axial_rotation	L2_L3_Flex_Ext	L2_L3_Lat_Bending	L2_L3_axial_rotation	L1_L2_Flex_Ext	L1_L2_Lat_Bending	L1_L2_axial_rotation	L1_T12_Flex_Ext	L1_T12_Lat_Bending	L1_T12_axial_rotation	Abs_r3	Abs_r2	Abs_r1	Abs_t1	Abs_t2	neck_flexion	neck_bending	neck_rotation	arm_flex_r	arm_add_r	arm_rot_r	elbow_flex_r	pro_sup_r	wrist_flex_r	wrist_dev_r	arm_flex_l	arm_add_l	arm_rot_l	elbow_flex_l	pro_sup_l	wrist_flex_l	wrist_dev_l
      3.89830508	     -0.21279868	     -0.44402551	    101.58346257	      0.23920035	      0.89972590	      0.60856991	     -5.84927304	      2.07873940	     -1.85600768	      3.24080802	      0.05656277	     33.19716137	    -11.62422919	      0.00000000	     -5.58864144	     -2.33885744	     21.13050734	      0.30463653	      0.00531691	     32.30163652	     -2.88284585	      0.00000000	     -0.26964547	      0.22964021	      1.35851803	     -0.50075860	      0.30542148	      1.44342541	     -0.44300054	      0.55834720	      1.44342541	     -0.30817781	      0.55834720	      1.18870328	     -0.25039278	      0.46828231	      1.10379590	     -0.15407542	      0.35571268	      1.01888853	     -1.92605062	      2.59773596	      7.55566975	      0.00000000	      0.00000000	      6.50152916	     -2.63822269	      1.91470954	     -7.81949318	    -15.19724900	     19.65790224	     27.94571751	     77.78868476	     -9.38836688	     -0.51926985	      1.55783584	    -15.70765679	     34.27866312	     25.20271533	     77.52906771	     -6.68470187	    -10.52752602
      3.91525424	     -0.23464369	     -0.47584231	    102.14095208	      0.23786734	      0.89995682	      0.60823141	     -5.85244222	      2.09380770	     -1.71303368	      3.23204999	      0.05640991	     33.03962622	    -12.57880900	      0.00000000	     -5.53971154	     -2.32384824	     23.15776322	      0.31629126	      0.00552032	     31.55830984	     -5.09174915	      0.00000000	     -0.23882964	      0.23501582	      1.24124789	     -0.44353052	      0.31257104	      1.31882589	     -0.39237321	      0.57141747	      1.31882589	     -0.27295839	      0.57141747	      1.08609191	     -0.22177720	      0.47924427	      1.00851391	     -0.13646726	      0.36403951	      0.93093592	     -1.70593623	      2.65854599	      6.90344841	      0.00000000	      0.00000000	      6.03002275	     -2.43900590	      2.55842836	     -7.98049729	    -15.12126050	     18.86924516	     28.11936809	     78.68751883	     -9.31702539	     -0.14711219	      1.28785739	    -15.54815619	     33.80087004	     25.03652164	     77.54904763	     -6.55542936	    -10.91217101
      3.93220339	     -0.23473880	     -0.24196795	    102.06097699	      0.23728269	      0.90054430	      0.60809242	     -5.97879953	      2.02857436	     -3.34680659	      3.45199440	      0.06024867	     33.86914923	     -9.93977550	      0.00000000	     -5.75179454	     -2.32386726	     20.92349691	      0.44766587	      0.00781324	     31.90991272	     -2.25657582	      0.00000000	     -0.25827399	      0.24940843	      1.26499394	     -0.47964062	      0.33171321	      1.34405607	     -0.42431833	      0.60641165	      1.34405607	     -0.29518134	      0.60641165	      1.10686970	     -0.23983322	      0.50859367	      1.02780758	     -0.14757776	      0.38633365	      0.94874546	     -1.84482526	      2.82135801	      7.03551682	      0.00000000	      0.00000000	      5.60283107	     -2.05954722	      3.05112479	     -7.88151399	    -15.41537791	     19.77794897	     28.10116539	     76.96514389	     -9.39159745	     -0.58495504	      1.41494505	    -15.54461497	     34.88075640	     24.90224740	     76.29100401	     -6.59377837	    -10.52947194
      3.94915254	     -0.25111739	     -0.29379333	    102.68976584	      0.23608798	      0.90073021	      0.60803965	     -6.04564897	      2.09710628	     -2.32887289	      3.23282724	      0.05642348	     33.48720918	    -11.98215173	      0.00000000	     -5.68286875	     -2.33518874	     24.80350821	      0.34605805	      0.00603985	     30.66917238	     -6.65089173	      0.00000000	     -0.23442109	      0.25322039	      1.14696725	     -0.43534340	      0.33678312	      1.21865271	     -0.38513040	      0.61568006	      1.21865271	     -0.26791986	      0.61568006	      1.00359635	     -0.21768342	      0.51636702	      0.93191089	     -0.13394821	      0.39223839	      0.86022544	     -1.67444638	      2.86447971	      6.37908777	      0.00000000	      0.00000000	      5.11215951	     -1.73395904	      3.86026991	     -8.11884978	    -15.12771892	     17.81579891	     28.28079262	     78.87275242	     -9.19414572	     -0.29453791	      1.30252114	    -15.32115711	     34.26980280	     24.40143857	     77.33885368	     -6.44291362	    -10.50867378
      3.96610169	     -0.31360791	     -0.23605403	    102.85607990	      0.23545998	      0.90113928	      0.60815542	     -6.08679716	      1.99422243	     -3.40510748	      3.29941751	      0.05758570	     33.99683363	    -10.47566476	      0.00000000	     -5.70164819	     -2.28456405	     23.98094901	      0.36958096	      0.00645040	     30.95080276	     -4.99137671	      0.00000000	     -0.23683915	      0.25380336	      1.11193268	     -0.43983399	      0.33755847	      1.18142847	     -0.38910304	      0.61709750	      1.18142847	     -0.27068347	      0.61709750	      0.97294109	     -0.21992884	      0.51755582	      0.90344530	     -0.13532989	      0.39314141	      0.83394951	     -1.69171838	      2.87107440	      6.18423598	      0.00000000	      0.00000000	      4.52859240	     -1.41297861	      4.48143647	     -7.99429185	    -15.27140197	     18.39188535	     28.22134767	     77.63832617	     -9.29725462	     -0.68054285	      1.42002697	    -15.29388564	     35.14300049	     23.93375532	     76.54101635	     -6.57604126	    -10.17979554
      3.98305085	     -0.42048661	     -0.32552893	    103.04496476	      0.23484395	      0.90137816	      0.60835657	     -5.97624562	      1.85465136	     -3.18215360	      3.40738108	      0.05947002	     34.01396908	    -10.93343713	      0.00000000	     -5.56518599	     -2.14478301	     24.49788979	      0.40304220	      0.00703441	     31.02899097	     -5.16668329	      0.00000000	     -0.22241365	      0.24650240	      1.07505810	     -0.41304439	      0.32784820	      1.14224923	     -0.36540338	      0.59934595	      1.14224923	     -0.25419656	      0.59934595	      0.94067584	     -0.20653331	      0.50266770	      0.87348470	     -0.12708716	      0.38183222	      0.80629357	     -1.58867845	      2.78848450	      5.97915062	      0.00000000	      0.00000000	      3.89551913	     -1.20878039	      5.02379273	     -8.07736521	    -15.18002312	     17.62733909	     28.36245511	     78.08184902	     -9.24977529	     -0.58474056	      1.45168648	    -15.20862802	     35.50461785	     23.41968028	     76.38801958	     -6.89941146	     -9.83280859
      4.00000000	     -0.52199250	     -0.42005096	    102.96533413	      0.23465623	      0.90159856	      0.60867317	     -5.84346041	      1.67403427	     -3.42282991	      3.51775914	      0.06139648	     34.16022529	    -10.41736035	      0.00000000	     -5.44633499	     -1.98555102	     24.28042398	      0.44733536	      0.00780747	     31.35227653	     -4.80782924	      0.00000000	     -0.21873630	      0.23849547	      1.09125923	     -0.40621518	      0.31719898	      1.15946293	     -0.35936187	      0.57987789	      1.15946293	     -0.24999372	      0.57987789	      0.95485183	     -0.20311853	      0.48633997	      0.88664812	     -0.12498592	      0.36942949	      0.81844442	     -1.56241152	      2.69790848	      6.06925646	      0.00000000	      0.00000000	      3.50616471	     -1.13807986	      5.29146319	     -8.01891553	    -15.22902561	     17.70142253	     28.39257179	     77.67205480	     -9.21412782	     -0.73308699	      1.47035568	    -15.19715191	     35.68215092	     23.11995793	     76.04704271	     -7.03002904	     -9.13056782
      4.01694915	     -0.55512202	     -0.53936008	    102.87170697	      0.23485218	      0.90165940	      0.60910599	     -5.56091329	      1.57162900	     -3.64119168	      3.82109790	      0.06669074	     34.40749200	     -9.94420557	      0.00000000	     -5.28515007	     -1.92379411	     24.11522835	      0.48979418	      0.00854852	     31.69066194	     -4.49844784	      0.00000000	     -0.22124693	      0.23359260	      1.11784504	     -0.41087767	      0.31067816	      1.18771035	     -0.36348658	      0.56795705	      1.18771035	     -0.25286311	      0.56795705	      0.97811441	     -0.20544990	      0.47634204	      0.90824909	     -0.12642049	      0.36183494	      0.83838378	     -1.58034468	      2.64244624	      6.21711875	      0.00000000	      0.00000000	      3.47427112	     -1.16729925	      5.34097707	     -7.92945319	    -15.25970961	     17.77613779	     28.45200196	     77.31671306	     -9.19166431	     -0.72313806	      1.45782567	    -15.30412467	     35.70341012	     23.03325042	     75.71312809	     -7.14171480	     -8.71399381
      4.03389831	     -0.57130040	     -0.58580709	    102.99986519	      0.23472231	      0.90187410	      0.60972050	     -5.49743401	      1.53889024	     -3.57456729	      3.77072303	      0.06581153	     34.33534522	     -9.89329803	      0.00000000	     -5.18082129	     -1.89470642	     24.09174095	      0.52435838	      0.00915178	     31.76835693	     -4.54070067	      0.00000000	     -0.23876556	      0.23418145	      1.12533807	     -0.44341151	      0.31146133	      1.19567170	     -0.39226793	      0.56938877	      1.19567170	     -0.27288515	      0.56938877	      0.98467081	     -0.22171769	      0.47754281	      0.91433718	     -0.13643064	      0.36274706	      0.84400355	     -1.70547849	      2.64910737	      6.25879273	      0.00000000	      0.00000000	      3.35912332	     -1.17757107	      5.32256261	     -7.83850910	    -15.31788318	     17.78638373	     28.50808033	     77.34438094	     -9.19465204	     -0.77921752	      1.49586681	    -15.43452694	     35.68157292	     23.07805404	     75.72015760	     -7.21575088	     -8.64736295
